<?xml version="1.0" encoding="utf-8"?>
<!-- Generator: Adobe Illustrator 17.0.0, SVG Export Plug-In . SVG Version: 6.00 Build 0)  -->
<!DOCTYPE svg PUBLIC "-//W3C//DTD SVG 1.1//EN" "http://www.w3.org/Graphics/SVG/1.1/DTD/svg11.dtd">
<svg version="1.1" id="레이어_1" xmlns="http://www.w3.org/2000/svg" xmlns:xlink="http://www.w3.org/1999/xlink" x="0px"
	 y="0px" width="159px" height="156.55px" viewBox="0 0 159 156.55" enable-background="new 0 0 159 156.55" xml:space="preserve">
<g>
	<path d="M141.5,59.199c-6.903,0-12.5-5.596-12.5-12.5v-34.2c0-6.903,5.597-12.5,12.5-12.5s12.5,5.597,12.5,12.5v34.2
		C154,53.602,148.403,59.199,141.5,59.199z M17.5,59.199c-6.903,0-12.5-5.596-12.5-12.5v-34.2c0-6.903,5.597-12.5,12.5-12.5
		S30,5.595,30,12.499v34.2C30,53.602,24.403,59.199,17.5,59.199z"/>
	<path d="M92,156.549c-1.482,0-2.891-0.658-3.841-1.799L79.5,144.36l-8.659,10.391c-0.97,1.164-2.401,1.853-3.933,1.798
		c-1.516-0.027-2.937-0.742-3.864-1.941l-32.85-42.5c-1.433-1.854-1.386-4.454,0.113-6.256l45.286-54.424
		c0.147-0.184,0.309-0.358,0.484-0.523c0.176-0.166,0.363-0.317,0.558-0.454c0.82-0.574,1.764-0.871,2.709-0.899
		c0.393-0.011,0.791,0.022,1.184,0.105c1.005,0.21,1.952,0.73,2.687,1.546c0.047,0.053,0.094,0.107,0.14,0.162l45.339,54.487
		c1.498,1.802,1.545,4.402,0.112,6.256l-32.85,42.5c-0.927,1.199-2.349,1.914-3.864,1.941C92.062,156.549,92.03,156.549,92,156.549z
		 M40.559,109.164l26.588,34.398l7.354-8.824V68.375L40.559,109.164z M84.5,134.739l7.354,8.824l26.588-34.398L84.5,68.375V134.739z
		"/>
	<path d="M96.801,142.599c-0.358,0-0.715-0.153-0.962-0.45l-17.3-20.8c-0.441-0.531-0.369-1.319,0.162-1.761
		c0.53-0.441,1.319-0.37,1.76,0.162l17.3,20.799c0.441,0.531,0.369,1.319-0.161,1.761C97.365,142.504,97.082,142.599,96.801,142.599
		z M100.801,137.399c-0.358,0-0.715-0.153-0.962-0.45l-21.3-25.6c-0.441-0.531-0.369-1.319,0.162-1.761
		c0.53-0.442,1.319-0.37,1.76,0.161l21.3,25.6c0.441,0.531,0.369,1.319-0.161,1.761
		C101.366,137.304,101.082,137.399,100.801,137.399z M104.801,132.248c-0.359,0-0.715-0.153-0.963-0.451l-25.299-30.449
		c-0.441-0.531-0.368-1.319,0.163-1.761c0.529-0.44,1.317-0.369,1.761,0.163l25.3,30.449c0.44,0.531,0.368,1.319-0.163,1.761
		C105.365,132.154,105.082,132.248,104.801,132.248z M108.851,127.049c-0.358,0-0.715-0.153-0.962-0.45L78.54,91.349
		c-0.442-0.53-0.37-1.318,0.161-1.761c0.529-0.441,1.319-0.37,1.761,0.161l29.35,35.25c0.441,0.53,0.369,1.318-0.161,1.761
		C109.416,126.954,109.132,127.049,108.851,127.049z M112.851,121.849c-0.358,0-0.714-0.153-0.962-0.45L78.54,81.349
		c-0.442-0.53-0.37-1.319,0.161-1.76c0.529-0.441,1.317-0.371,1.761,0.161l33.35,40.05c0.441,0.53,0.369,1.318-0.161,1.761
		C113.416,121.754,113.132,121.849,112.851,121.849z M116.851,116.699c-0.358,0-0.715-0.153-0.962-0.45l-37.35-44.9
		c-0.441-0.531-0.369-1.319,0.162-1.76c0.53-0.441,1.319-0.37,1.76,0.162l37.35,44.899c0.441,0.531,0.369,1.319-0.161,1.761
		C117.415,116.604,117.132,116.699,116.851,116.699z"/>
</g>
</svg>
